<svg width="242px" height="442px" viewBox="0 0 242 442" version="1.1" xmlns="http://www.w3.org/2000/svg"
     xmlns:xlink="http://www.w3.org/1999/xlink">
    <g id="Page-1" stroke="none" stroke-width="1" fill="none" fill-rule="evenodd">
        <g id="Shape-2" transform="translate(-0.000000, 0.057298)" fill="#FFF">
            <path
                    d="M175.1,1.54270192 C183.2,3.94270192 189.7,7.54270192 195.3,12.7427019 C200.8,17.9427019 207.3,27.1427019 209.1,32.6427019 C210.1,35.8427019 210,36.3427019 207.5,38.9427019 C200.8,45.9427019 186.9,50.9427019 174.1,50.9427019 C160.4,50.9427019 148.4,46.0427019 138.7,36.4427019 C133.5,31.3427019 126,18.8427019 126,15.2427019 C126,11.9427019 136.7,5.14270192 147,1.84270192 C154.1,-0.457298079 167.8,-0.657298079 175.1,1.54270192 Z M122,34.9427019 C133,59.0427019 147.1,85.7427019 155.2,98.0427019 C160.1,105.442702 167,114.042702 173.1,120.442702 C179.4,126.842702 182.7,131.042702 182,131.442702 C180.6,132.242702 177,129.142702 160,111.942702 C141.4,93.2427019 125.9,73.2427019 115.6,54.6427019 L111.8,47.9427019 L110,50.1427019 C105.3,56.2427019 95.3,72.4427019 90.9,81.1427019 C85.2,92.4427019 78.4,111.542702 77,120.142702 C75.9,126.942702 75.7,127.442702 73.6,126.642702 C71.5,125.842702 72.3,118.142702 76.1,99.6427019 C81.1,75.5427019 88.3,56.8427019 98.9,40.6427019 C105.8,30.0427019 114.2,19.7427019 115.1,20.6427019 C115.5,21.1427019 118.6,27.5427019 122,34.9427019 Z M222.7,129.042702 C228.5,130.842702 234.6,136.442702 237.9,143.042702 C247.5,162.242702 234.2,183.942702 213,183.942702 C183.2,183.942702 174.2,143.942702 200.9,129.942702 C206,127.242702 215.4,126.842702 222.7,129.042702 Z M72.4,138.142702 C72.7,139.942702 73.2,145.742702 73.5,150.942702 C74.2,162.442702 77.1,177.642702 78.5,176.942702 C79.7,176.342702 79.7,176.542702 77.6,162.942702 C76.8,157.142702 76,148.542702 76,143.642702 L76,134.942702 L92.6,134.942702 C113.8,134.942702 125.5,137.142702 138.5,143.442702 C154.5,151.242702 165,161.642702 173.6,178.142702 C187.5,205.142702 186.8,239.942702 171.9,266.942702 C165.9,277.742702 152.1,291.242702 141.5,296.642702 C126.1,304.542702 122.4,305.242702 88.8,305.642702 L59.1,306.142702 L58.8,349.742702 C58.4,398.242702 58.4,397.442702 51.3,411.142702 C43.7,425.642702 27.6,437.242702 10.7,440.442702 C6.4,441.242702 2.2,441.942702 1.4,441.942702 C0.2,441.942702 8.52651283e-14,419.942702 5.68434189e-14,288.442702 L5.68434189e-14,134.942702 L71.9,134.942702 L72.4,138.142702 Z M151.6,3.54270192 C142.5,5.34270192 142,6.14270192 150.6,5.34270192 C170.1,3.64270192 191,15.2427019 199.5,32.4427019 C201.2,35.7427019 202.6,38.6427019 202.8,38.8427019 C202.9,39.1427019 204,38.3427019 205.2,37.2427019 L207.3,35.0427019 L204.5,29.4427019 C197.8,15.7427019 183.6,5.34270192 168.3,3.04270192 C159.9,1.74270192 160.5,1.74270192 151.6,3.54270192 Z M204.7,131.542702 C200.1,132.942702 189.9,141.242702 191.2,142.542702 C191.5,142.842702 193.5,142.142702 195.6,141.042702 C207.5,134.642702 222.1,136.642702 232.5,146.142702 C235.5,148.842702 238,150.642702 238,150.042702 C238,147.342702 232.8,138.942702 229.3,136.042702 C222.3,130.242702 213.9,128.742702 204.7,131.542702 Z M81.4,189.342702 C53.8,198.042702 51.1,236.842702 77.2,249.842702 C93,257.742702 113.1,250.742702 121,234.442702 C123,230.242702 123.5,227.942702 123.5,220.442702 C123.5,212.042702 123.3,211.042702 120.1,205.142702 C114.1,194.042702 103.8,187.842702 91.7,188.042702 C88.3,188.042702 83.7,188.642702 81.4,189.342702 Z M118,233.542702 C112.6,244.642702 103.1,250.342702 90.3,250.142702 C83,250.042702 76.9,247.642702 71.4,242.642702 C67.2,238.842702 63.2,232.942702 64.9,232.942702 C65.4,232.942702 66.2,233.442702 66.5,233.942702 C67.9,236.142702 77.3,240.042702 83.2,240.842702 C95.2,242.442702 108.5,237.742702 116.1,229.042702 C118.2,226.642702 120.1,224.142702 120.1,223.542702 C120.2,222.942702 120.5,223.542702 120.7,224.842702 C121,226.242702 119.9,229.742702 118,233.542702 Z"
                    id="Shape"
            ></path>
        </g>
    </g>
</svg>
