<?xml version="1.0" standalone="no"?>
<!DOCTYPE svg PUBLIC "-//W3C//DTD SVG 20010904//EN"
 "http://www.w3.org/TR/2001/REC-SVG-20010904/DTD/svg10.dtd">
<svg version="1.0" xmlns="http://www.w3.org/2000/svg"
 width="512.000000pt" height="512.000000pt" viewBox="0 0 512.000000 512.000000"
 preserveAspectRatio="xMidYMid meet">
<metadata>
Created by potrace 1.15, written by Peter Selinger 2001-2017
</metadata>
<g transform="translate(0.000000,512.000000) scale(0.100000,-0.100000)"
fill="#000000" stroke="none">
<path d="M529 5056 c-2 -3 -18 -8 -34 -11 -63 -13 -150 -48 -160 -65 -4 -6
-11 -8 -16 -5 -5 4 -9 2 -9 -2 0 -5 -18 -19 -39 -33 -22 -13 -38 -28 -35 -32
3 -4 0 -8 -7 -8 -6 0 -22 -11 -35 -25 -13 -14 -20 -25 -17 -25 3 0 -4 -9 -17
-20 -13 -11 -20 -20 -16 -20 4 0 1 -7 -6 -15 -31 -34 -36 -43 -31 -49 4 -3 1
-6 -6 -6 -7 0 -9 -4 -6 -10 3 -5 1 -10 -6 -10 -7 0 -10 -3 -6 -6 3 -4 -2 -23
-13 -43 -10 -20 -23 -63 -29 -96 -8 -41 -11 -654 -11 -2049 0 -2205 -4 -2050
66 -2192 19 -39 58 -97 86 -128 54 -61 161 -140 173 -128 5 4 6 0 2 -9 -4 -12
0 -15 19 -13 13 1 24 -1 24 -4 0 -4 11 -12 25 -19 15 -6 22 -7 19 -1 -4 6 1 6
13 -1 11 -5 33 -14 49 -18 16 -4 934 -9 2039 -10 1770 -2 2018 0 2075 13 177
41 330 165 410 330 63 131 60 -5 60 2184 0 2143 2 2044 -50 2165 -38 88 -157
245 -174 228 -3 -3 -8 2 -12 11 -3 9 -12 16 -20 16 -8 0 -14 5 -14 10 0 6 -6
10 -14 10 -8 0 -16 5 -18 10 -2 6 -13 12 -25 13 -12 0 -19 5 -17 9 5 7 -13 12
-43 11 -7 -1 -11 3 -8 7 3 4 -2 11 -11 14 -10 4 -13 2 -8 -7 5 -8 2 -8 -9 2
-9 7 -24 10 -33 7 -14 -5 -15 -4 -4 8 11 14 -220 15 -2042 16 -1130 0 -2057
-2 -2059 -4z m2822 -302 c81 -24 146 -60 202 -112 55 -52 120 -144 138 -199
10 -32 9 -37 -16 -63 -67 -70 -206 -120 -334 -120 -137 0 -257 49 -354 145
-52 51 -127 176 -127 212 0 33 107 101 210 134 71 23 208 25 281 3z m-531
-334 c110 -241 251 -508 332 -631 49 -74 118 -160 179 -224 63 -64 96 -106 89
-110 -14 -8 -50 23 -220 195 -186 187 -341 387 -444 573 l-38 67 -18 -22 c-47
-61 -147 -223 -191 -310 -57 -113 -125 -304 -139 -390 -11 -68 -13 -73 -34
-65 -21 8 -13 85 25 270 50 241 122 428 228 590 69 106 153 209 162 200 4 -5
35 -69 69 -143z m1007 -941 c58 -18 119 -74 152 -140 96 -192 -37 -409 -249
-409 -298 0 -388 400 -121 540 51 27 145 31 218 9z m-1503 -91 c3 -18 8 -76
11 -128 7 -115 36 -267 50 -260 12 6 12 4 -9 140 -8 58 -16 144 -16 193 l0 87
166 0 c212 0 329 -22 459 -85 160 -78 265 -182 351 -347 139 -270 132 -618
-17 -888 -60 -108 -198 -243 -304 -297 -154 -79 -191 -86 -527 -90 l-297 -5
-3 -436 c-4 -485 -4 -477 -75 -614 -76 -145 -237 -261 -406 -293 -43 -8 -85
-15 -93 -15 -12 0 -14 220 -14 1535 l0 1535 360 0 359 0 5 -32z"/>
<path d="M3116 4734 c-91 -18 -96 -26 -10 -18 195 17 404 -99 489 -271 17 -33
31 -62 33 -64 1 -3 12 5 24 16 l21 22 -28 56 c-67 137 -209 241 -362 264 -84
13 -78 13 -167 -5z"/>
<path d="M3647 3454 c-46 -14 -148 -97 -135 -110 3 -3 23 4 44 15 119 64 265
44 369 -51 30 -27 55 -45 55 -39 0 27 -52 111 -87 140 -70 58 -154 73 -246 45z"/>
<path d="M2414 2876 c-276 -87 -303 -475 -42 -605 158 -79 359 -9 438 154 20
42 25 65 25 140 0 84 -2 94 -34 153 -60 111 -163 173 -284 171 -34 0 -80 -6
-103 -13z m366 -442 c-54 -111 -149 -168 -277 -166 -73 1 -134 25 -189 75 -42
38 -82 97 -65 97 5 0 13 -5 16 -10 14 -22 108 -61 167 -69 120 -16 253 31 329
118 21 24 40 49 40 55 1 6 4 0 6 -13 3 -14 -8 -49 -27 -87z"/>
</g>
</svg>
